<?xml version="1.0" standalone="no"?>
<!DOCTYPE svg PUBLIC "-//W3C//DTD SVG 20010904//EN"
 "http://www.w3.org/TR/2001/REC-SVG-20010904/DTD/svg10.dtd">
<svg version="1.0" xmlns="http://www.w3.org/2000/svg"
 width="472.000000pt" height="165.000000pt" viewBox="0 0 472.000000 165.000000"
 preserveAspectRatio="xMidYMid meet">

<g transform="translate(0.000000,165.000000) scale(0.100000,-0.100000)"
fill="#000000" stroke="none">
<path d="M3040 1442 c-44 -21 -74 -79 -65 -121 12 -54 40 -78 128 -106 45 -15
91 -36 102 -46 18 -18 19 -21 5 -47 -33 -58 -150 -49 -166 13 -6 25 -32 33
-68 19 -36 -14 3 -90 58 -115 53 -24 149 -25 196 -1 64 31 88 117 50 179 -22
37 -52 54 -137 78 -71 20 -103 47 -87 73 26 41 130 35 141 -8 4 -16 14 -20 48
-20 l44 0 -9 31 c-5 17 -15 38 -22 47 -36 42 -155 56 -218 24z"/>
<path d="M1540 1240 l0 -210 40 0 39 0 3 78 3 77 81 5 c92 6 128 24 150 75 18
45 18 79 -2 121 -26 54 -56 64 -194 64 l-120 0 0 -210z m227 127 c21 -21 21
-73 -1 -95 -12 -12 -34 -17 -79 -17 l-62 0 -3 54 c-5 81 -2 84 68 79 38 -3 67
-10 77 -21z"/>
<path d="M2280 1240 l0 -210 40 0 40 0 0 90 0 90 90 0 90 0 0 30 0 30 -90 0
-90 0 0 60 0 60 105 0 105 0 0 30 0 30 -145 0 -145 0 0 -210z"/>
<path d="M3380 1420 c0 -28 2 -30 40 -30 38 0 40 2 40 30 0 28 -2 30 -40 30
-38 0 -40 -2 -40 -30z"/>
<path d="M1979 1325 c-34 -18 -54 -61 -33 -69 27 -10 45 -7 71 14 33 26 68 25
87 -2 20 -28 14 -35 -37 -48 -85 -22 -124 -40 -136 -66 -18 -41 -13 -74 18
-105 37 -37 104 -41 145 -8 23 18 27 18 32 5 4 -10 18 -16 38 -16 l31 0 -3
118 c-4 148 -6 158 -42 177 -36 19 -136 19 -171 0z m136 -194 c-12 -55 -67
-78 -99 -42 -29 32 -16 54 39 73 57 19 70 13 60 -31z"/>
<path d="M2679 1325 c-34 -18 -54 -61 -33 -69 27 -10 45 -7 71 14 33 26 68 25
87 -2 20 -28 14 -35 -37 -48 -85 -22 -124 -40 -136 -66 -18 -41 -13 -74 18
-105 37 -37 104 -41 145 -8 23 18 27 18 32 5 4 -10 18 -16 38 -16 l31 0 -3
118 c-4 148 -6 158 -42 177 -36 19 -136 19 -171 0z m136 -194 c-12 -55 -67
-78 -99 -42 -29 32 -16 54 39 73 57 19 70 13 60 -31z"/>
<path d="M3380 1180 l0 -150 40 0 40 0 0 150 0 150 -40 0 -40 0 0 -150z"/>
<path d="M560 593 c0 -190 9 -221 75 -249 44 -18 136 -18 180 0 66 28 75 59
75 249 l0 167 -40 0 -40 0 0 -160 c0 -160 0 -161 -26 -187 -22 -22 -32 -25
-67 -20 -71 10 -77 25 -77 208 l0 159 -40 0 -40 0 0 -167z"/>
<path d="M1360 730 c0 -28 3 -30 35 -30 32 0 35 2 35 30 0 28 -3 30 -35 30
-32 0 -35 -2 -35 -30z"/>
<path d="M1720 550 l0 -210 40 0 39 0 3 92 3 93 88 3 87 3 0 -96 0 -95 40 0
40 0 0 210 0 210 -40 0 -40 0 0 -85 0 -86 -87 3 -88 3 -3 83 -3 82 -39 0 -40
0 0 -210z"/>
<path d="M3050 550 l0 -210 35 0 c24 0 35 5 35 15 0 19 3 19 42 -5 18 -11 50
-20 70 -20 118 0 164 218 63 298 -37 29 -103 30 -139 1 l-26 -20 0 75 0 76
-40 0 -40 0 0 -210z m195 25 c21 -20 25 -34 25 -85 0 -51 -4 -65 -25 -85 -32
-33 -50 -31 -87 5 -29 29 -30 34 -26 92 4 48 9 65 27 79 31 26 57 24 86 -6z"/>
<path d="M1091 624 c-30 -25 -31 -25 -31 -5 0 17 -6 21 -35 21 l-35 0 0 -150
0 -150 34 0 33 0 5 107 c5 101 6 108 32 130 33 28 50 29 76 3 18 -18 20 -33
20 -130 l0 -110 40 0 40 0 0 103 c0 165 -22 207 -106 207 -31 0 -51 -7 -73
-26z"/>
<path d="M2212 630 c-49 -30 -72 -75 -72 -141 0 -96 63 -159 160 -159 90 0
150 64 150 160 0 65 -24 110 -72 140 -44 27 -122 27 -166 0z m133 -54 c49 -49
39 -154 -17 -185 -24 -14 -30 -14 -62 1 -88 42 -59 205 37 208 10 0 29 -11 42
-24z"/>
<path d="M2622 630 c-39 -24 -42 -24 -42 -5 0 10 -10 15 -30 15 l-30 0 0 -150
0 -150 35 0 35 0 0 94 c0 52 4 106 10 120 13 35 50 52 79 37 20 -11 21 -20 21
-131 l0 -120 39 0 39 0 4 111 c3 102 5 112 27 130 28 23 45 24 65 3 13 -12 16
-39 16 -130 l0 -114 41 0 41 0 -4 131 c-3 129 -3 131 -31 155 -34 29 -89 32
-133 5 -29 -18 -31 -18 -53 0 -30 25 -87 24 -129 -1z"/>
<path d="M3882 628 c-19 -19 -22 -20 -22 -5 0 13 -9 17 -35 17 l-35 0 0 -150
0 -150 34 0 34 0 4 99 c4 115 21 147 69 137 24 -4 29 -1 38 26 6 16 8 34 5 39
-11 18 -69 9 -92 -13z"/>
<path d="M4068 634 c-77 -41 -87 -197 -18 -266 36 -36 103 -39 144 -7 l26 20
0 -45 c0 -35 -5 -48 -22 -60 -28 -20 -62 -20 -82 -1 -8 8 -36 18 -62 22 -42 5
-47 4 -41 -11 4 -10 7 -22 7 -27 0 -24 66 -49 128 -49 134 0 152 31 152 265
l0 165 -35 0 c-24 0 -35 -5 -35 -15 0 -12 -6 -11 -32 5 -39 23 -92 25 -130 4z
m127 -59 c21 -20 25 -34 25 -80 0 -46 -4 -60 -25 -80 -52 -53 -115 -10 -115
80 0 89 63 133 115 80z"/>
<path d="M1360 490 l0 -150 35 0 35 0 0 150 0 150 -35 0 -35 0 0 -150z"/>
<path d="M3420 520 c0 -66 5 -130 11 -143 21 -47 96 -61 150 -30 16 10 29 21
29 25 0 4 5 8 10 8 6 0 10 -9 10 -20 0 -16 7 -20 35 -20 l35 0 0 150 0 150
-40 0 -40 0 0 -105 c0 -99 -2 -107 -25 -130 -29 -30 -56 -32 -78 -7 -14 15
-17 40 -17 130 l0 112 -40 0 -40 0 0 -120z"/>
<path d="M1510 480 l0 -30 80 0 80 0 0 30 0 30 -80 0 -80 0 0 -30z"/>
</g>
</svg>
